<?xml version="1.0" encoding="UTF-8" standalone="no"?><!-- Generator: Gravit.io --><svg xmlns="http://www.w3.org/2000/svg" xmlns:xlink="http://www.w3.org/1999/xlink" style="isolation:isolate" viewBox="0 0 32 32" width="32pt" height="32pt"><defs><clipPath id="_clipPath_Ab1aiJQQEevyoy8S2t14ldeOfRKsIqtW"><rect width="32" height="32"/></clipPath></defs><g clip-path="url(#_clipPath_Ab1aiJQQEevyoy8S2t14ldeOfRKsIqtW)"><path d=" M 8.954 27.116 Q 16.028 9.426 14.545 6.225 C 13.061 3.025 4.88 4.734 6.469 3.12 C 8.058 1.505 12.116 0.501 15.787 1.256 Q 19.458 2.011 21.999 4.362 Q 25.914 3.609 25.726 4.362 C 25.538 5.115 25.1 9.393 23.862 8.71 C 22.624 8.028 21.735 6.679 20.765 6.847 C 19.795 7.015 17.894 8.638 17.029 11.816 C 16.165 14.994 13.604 27.889 13.302 28.98 C 13.001 30.071 11.615 31.473 10.196 30.843 Q 8.314 30.008 8.954 27.116 Z " fill="rgb(72,158,221)"/></g></svg>